<svg id='Profile_Man_Cash_Message_24' width='24' height='24' viewBox='0 0 24 24' xmlns='http://www.w3.org/2000/svg' xmlns:xlink='http://www.w3.org/1999/xlink'><rect width='24' height='24' stroke='none' fill='#000000' opacity='0'/>


<g transform="matrix(0.83 0 0 0.83 12 12)" >
<g style="" >
<g transform="matrix(1 0 0 1 5.27 -4.03)" >
<path style="stroke: rgb(223,223,223,233); stroke-width: 2; stroke-dasharray: none; stroke-linecap: round; stroke-dashoffset: 0; stroke-linejoin: round; stroke-miterlimit: 4; fill: none; fill-rule: nonzero; opacity: 1;" transform=" translate(-17.27, -7.97)" d="M 17.271 7.469 L 17.271 8.469" stroke-linecap="round" />
</g>
<g transform="matrix(1 0 0 1 5.27 -9.03)" >
<path style="stroke: rgb(223,223,223,233); stroke-width: 2; stroke-dasharray: none; stroke-linecap: round; stroke-dashoffset: 0; stroke-linejoin: round; stroke-miterlimit: 4; fill: none; fill-rule: nonzero; opacity: 1;" transform=" translate(-17.27, -2.97)" d="M 17.271 2.469 L 17.271 3.469" stroke-linecap="round" />
</g>
<g transform="matrix(1 0 0 1 5.27 -6.53)" >
<path style="stroke: rgb(223,223,223,233); stroke-width: 2; stroke-dasharray: none; stroke-linecap: round; stroke-dashoffset: 0; stroke-linejoin: round; stroke-miterlimit: 4; fill: none; fill-rule: nonzero; opacity: 1;" transform=" translate(-17.27, -5.47)" d="M 15.271 7.469 L 18.271 7.469 C 18.823284749830794 7.469 19.271 7.0212847498307935 19.271 6.469 C 19.271 5.916715250169207 18.823284749830794 5.469 18.271 5.469 L 16.271 5.469 C 15.718715250169208 5.469 15.271 5.0212847498307935 15.271 4.469 C 15.271 3.916715250169207 15.718715250169208 3.4690000000000003 16.271 3.4690000000000003 L 19.271 3.4690000000000003" stroke-linecap="round" />
</g>
<g transform="matrix(1 0 0 1 5.27 -5.03)" >
<path style="stroke: rgb(223,223,223,233); stroke-width: 2; stroke-dasharray: none; stroke-linecap: round; stroke-dashoffset: 0; stroke-linejoin: round; stroke-miterlimit: 4; fill: none; fill-rule: nonzero; opacity: 1;" transform=" translate(-17.27, -6.97)" d="M 23.271 9.469 C 23.271 10.021284749830793 22.823284749830794 10.469 22.271 10.469 L 16.771 10.469 L 13.271 13.469 L 13.271 10.469 L 12.271 10.469 C 11.718715250169208 10.469 11.271 10.021284749830793 11.271 9.469 L 11.271 1.4689999999999994 C 11.271 0.916715250169206 11.718715250169208 0.4689999999999994 12.271 0.4689999999999994 L 22.271 0.4689999999999994 C 22.823284749830794 0.4689999999999994 23.271 0.9167152501692057 23.271 1.4689999999999992 Z" stroke-linecap="round" />
</g>
<g transform="matrix(1 0 0 1 -5.73 5.72)" >
<path style="stroke: rgb(223,223,223,233); stroke-width: 2; stroke-dasharray: none; stroke-linecap: round; stroke-dashoffset: 0; stroke-linejoin: round; stroke-miterlimit: 4; fill: none; fill-rule: nonzero; opacity: 1;" transform=" translate(-6.27, -17.72)" d="M 11.771 23.469 L 8.271 21.969 L 8.271 19.969 C 8.271 19.969 9.137 19.619 9.137 17.469 C 9.82 17.469 10.08 15.469000000000001 9.129000000000001 15.469000000000001 C 9.539849855870685 14.889158158523234 9.698563442003783 14.16773276700915 9.569 13.469000000000001 C 9.078000000000001 11.469000000000001 4.238 11.469000000000001 3.748000000000001 13.469000000000001 C 1.6820000000000013 13.039000000000001 3.326000000000001 15.181000000000001 3.326000000000001 15.469000000000001 C 2.344000000000001 15.469000000000001 2.344000000000001 17.469 3.326000000000001 17.469 C 3.326000000000001 19.619 4.271000000000001 19.969 4.271000000000001 19.969 L 4.271000000000001 21.969 L 0.7710000000000008 23.469" stroke-linecap="round" />
</g>
</g>
</g>
</svg>
